# xmcd
#
# Track frame offsets:
#	150
#	21483
#	45669
#	80039
#	99504
#	120371
#	141108
#	156977
#	183947
#	196767
#	215218
#	231166
#	249424
#	267252
#	292703
#	311487
#	329089
#
# Disc length: 4794 seconds
#
# Revision: 3
# Processed by: cddbd v1.5.2PL0 Copyright (c) Steve Scherf et al.
# Submitted via: EZCDAudioConverter 6.0.0.1
#
DISCID=f412b811
DTITLE=Various Artist - Akella Presents - Modern Electric Blues - vol.14  CD2
DTITLE=New!
DYEAR=2013
DGENRE=Blues
TTITLE0=JOHN OATES BAND - Mississippi Mile
TTITLE1=COLIN JAMES - Freedom
TTITLE2=JUKE JOINTS - What in the world
TTITLE3=FRANCK GOLDWASSER - Chicken Heads
TTITLE4=Dr. HECTOR and GROOVE INJECTORS - Mystery Man
TTITLE5=The BLUE HAWAIIANS - Flesh and Soul
TTITLE6=JIMMY PRITCHARD - Who's Fool'in Who
TTITLE7=SAVOY BROWN - Natural Man
TTITLE8=JOHN CAMPBELLJOHN - Ready For A Riot
TTITLE9=MICHAEL POWERS - White Lightning
TTITLE10=CHARLIE MUSSELWHITE - Church Is Out
TTITLE11=GEOFF ACHISON - Rule The World
TTITLE12=GEORGE TERRY - That Ain't You
TTITLE13=JOHN MAYALL - Help Me Through The Day
TTITLE14=FABIAN ANDERHUB - It's A Blues Thing
TTITLE15=IKE TURNER - Big Fat Mama
TTITLE16=INNES SIBUN - Sandy
EXTD=
EXTT0=
EXTT1=
EXTT2=
EXTT3=
EXTT4=
EXTT5=
EXTT6=
EXTT7=
EXTT8=
EXTT9=
EXTT10=
EXTT11=
EXTT12=
EXTT13=
EXTT14=
EXTT15=
EXTT16=
PLAYORDER=
